# xmcd CD database file
#
# Track frame offsets:
#	150
#	21187
#	49202
#	70015
#	95517
#	118017
#	142387
#	165482
#	190580
#
# Disc length: 2852 seconds
#
# Revision: 1
# Processed by: cddbd v1.5.1PL2 Copyright (c) Steve Scherf et al.
# Submitted via: CDex 1.51
#
DISCID=7b0b2209
DTITLE=Qujila - Cobalt Boy
DYEAR=1993
DGENRE=Rock
TTITLE0=LIFE?
TTITLE1=RAIN
TTITLE2=CAMERA
TTITLE3=REIHO
TTITLE4=BABY BABY
TTITLE5=I LOVE YOU
TTITLE6=CURVE
TTITLE7=TOWN
TTITLE8=ANGEL [It's New!]
EXTD=YEAR: 1993
EXTT0=
EXTT1=
EXTT2=
EXTT3=
EXTT4=
EXTT5=
EXTT6=
EXTT7=
EXTT8=
PLAYORDER=
